<?xml version="1.0" standalone="no"?>
<!DOCTYPE svg PUBLIC "-//W3C//DTD SVG 20010904//EN"
 "http://www.w3.org/TR/2001/REC-SVG-20010904/DTD/svg10.dtd">
<svg version="1.0" xmlns="http://www.w3.org/2000/svg"
 width="1224.000000pt" height="1224.000000pt" viewBox="0 0 1224.000000 1224.000000"
 preserveAspectRatio="xMidYMid meet">
<metadata>
Created by potrace 1.11, written by Peter Selinger 2001-2013
</metadata>
<g transform="translate(0.000000,1224.000000) scale(0.100000,-0.100000)"
fill="#000000" stroke="none">
<path d="M82 10143 c-18 -9 -43 -30 -55 -47 l-22 -31 -3 -3581 -2 -3581 22
-33 c13 -19 39 -43 58 -54 35 -21 44 -21 1100 -21 l1065 0 0 65 0 65 -1050 5
-1050 5 -3 3539 c-2 2825 0 3541 10 3548 7 4 2686 8 5954 8 4737 0 5944 -3
5957 -12 16 -12 17 -233 15 -3548 l-3 -3535 -1105 -5 -1105 -5 -3 -62 c-3 -58
-1 -63 20 -68 13 -3 518 -4 1124 -3 l1100 3 41 27 c81 53 74 -317 71 3675 l-3
3562 -21 28 c-11 15 -36 38 -54 51 l-33 22 -5996 0 c-5503 0 -5999 -2 -6029
-17z"/>
<path d="M6064 9262 l-91 -26 -6 -150 c-6 -165 -17 -255 -48 -416 -75 -381
-241 -806 -468 -1197 -153 -265 -210 -416 -230 -615 -11 -114 2 -273 30 -371
35 -120 35 -117 7 -117 -39 0 -303 -47 -413 -74 -336 -82 -569 -198 -629 -314
-30 -57 -36 -166 -36 -652 0 -536 5 -584 59 -669 73 -112 278 -225 559 -306
382 -109 941 -159 1532 -136 642 26 1111 117 1445 281 123 60 203 115 238 161
26 35 36 237 37 721 0 505 -9 558 -109 650 -130 120 -410 227 -806 308 -77 16
-176 33 -220 40 -44 6 -90 13 -101 15 l-22 5 24 77 c167 539 -13 1461 -492
2531 -100 223 -132 282 -152 281 -9 0 -58 -12 -108 -27z m189 -692 c258 -651
389 -1196 388 -1620 0 -432 -118 -677 -393 -817 -113 -58 -137 -99 -104 -178
17 -39 60 -65 110 -65 51 0 197 79 288 155 43 36 87 65 99 65 123 0 764 -136
954 -202 99 -34 255 -119 255 -138 0 -13 -178 -99 -279 -134 -237 -82 -490
-129 -941 -173 -232 -23 -994 -26 -1210 -5 -427 41 -746 110 -925 200 -81 40
-155 89 -155 102 0 12 131 92 210 129 123 57 420 128 737 177 l173 27 58 -55
c108 -103 246 -175 311 -162 18 4 45 22 62 42 27 31 31 41 26 79 -6 56 -24 75
-112 120 -98 51 -207 163 -262 268 -58 112 -84 208 -90 340 -9 194 34 334 185
602 164 291 232 429 322 658 81 205 161 479 196 673 9 51 20 90 24 85 4 -4 37
-82 73 -173z"/>
<path d="M3811 3979 c-187 -33 -364 -203 -401 -383 -22 -107 8 -217 77 -288
20 -21 35 -39 32 -41 -2 -2 -40 -20 -84 -42 -136 -65 -226 -174 -255 -306 -21
-92 -9 -232 24 -306 35 -77 123 -164 200 -198 213 -94 523 -35 778 148 l77 55
12 -56 c28 -124 109 -192 229 -192 138 0 265 48 453 173 l107 71 0 104 0 104
-65 -60 c-118 -110 -272 -200 -383 -223 -73 -15 -102 -6 -132 43 -18 29 -20
47 -18 144 l3 111 96 119 c239 295 366 508 414 690 21 81 19 189 -4 239 -79
171 -266 125 -399 -98 -119 -199 -270 -653 -297 -892 -7 -57 -10 -63 -64 -113
-105 -100 -257 -194 -356 -221 -227 -60 -410 -9 -476 134 -26 57 -25 167 2
241 28 73 122 170 203 208 56 26 60 27 176 20 153 -9 170 -1 170 81 0 32 -5
57 -12 62 -7 4 -63 10 -125 13 -111 5 -112 5 -147 39 -45 44 -59 87 -54 165
10 162 160 316 308 316 65 0 111 -24 135 -69 31 -61 18 -104 -52 -167 -43 -38
-45 -43 -39 -78 10 -54 36 -76 78 -67 79 18 132 66 174 156 61 129 0 288 -132
346 -52 23 -176 32 -253 18z m1030 -195 c13 -64 -9 -155 -65 -269 -50 -103
-254 -420 -263 -411 -8 8 38 176 92 341 88 266 150 379 203 373 20 -2 28 -10
33 -34z"/>
<path d="M7935 3976 c-69 -22 -101 -43 -163 -111 -98 -107 -164 -260 -232
-542 -17 -70 -33 -136 -36 -145 -5 -15 -9 -16 -47 -2 -23 8 -79 31 -125 51
-95 40 -96 40 -107 -39 -11 -81 20 -112 158 -159 67 -22 81 -31 79 -46 -10
-51 -73 -274 -90 -318 l-19 -50 -86 -17 c-137 -27 -208 -76 -223 -152 -12 -66
-6 -71 71 -71 81 0 146 20 257 76 l77 39 173 -57 c159 -52 181 -56 269 -57 93
-1 98 0 180 41 46 23 130 79 187 124 l102 82 0 98 c0 55 -3 99 -6 99 -4 0 -51
-43 -106 -96 -158 -151 -239 -193 -337 -174 -25 5 -94 22 -152 38 -58 17 -135
33 -171 37 l-65 7 34 67 c19 37 50 117 68 177 l33 109 64 7 c304 31 555 358
536 698 -13 218 -151 340 -323 286z m125 -198 c16 -26 20 -50 20 -118 -1 -108
-19 -185 -67 -279 -65 -128 -180 -221 -276 -221 -36 0 -37 1 -31 28 66 285
119 446 176 535 41 64 72 87 119 87 34 0 42 -5 59 -32z"/>
<path d="M5445 3822 c-54 -11 -107 -102 -109 -187 -1 -64 19 -80 96 -79 56 1
64 4 89 32 48 53 76 185 45 211 -16 14 -94 28 -121 23z"/>
<path d="M8735 3822 c-49 -10 -97 -85 -110 -172 -5 -37 -3 -50 13 -70 18 -22
28 -25 83 -24 57 1 65 4 90 32 47 52 73 169 47 205 -14 18 -89 36 -123 29z"/>
<path d="M5240 3301 c-20 -38 -60 -158 -94 -285 -46 -166 -61 -309 -48 -443
16 -160 50 -209 143 -205 94 4 238 74 373 182 l81 65 3 103 c1 56 0 102 -3
102 -3 0 -53 -42 -110 -92 -113 -101 -215 -168 -252 -168 -36 0 -46 39 -40
155 6 111 33 229 101 444 25 80 46 148 46 153 0 4 -43 8 -95 8 -83 0 -96 -2
-105 -19z"/>
<path d="M6133 3306 c-111 -28 -242 -137 -316 -264 -135 -231 -122 -497 31
-615 104 -80 336 -80 516 2 75 34 173 99 233 154 l43 40 0 100 0 100 -72 -69
c-87 -84 -152 -131 -235 -173 -178 -89 -324 -78 -380 29 -48 91 -20 264 64
404 69 113 120 156 186 156 72 0 78 -62 16 -157 -41 -63 -41 -64 -23 -84 21
-23 86 -59 107 -59 19 0 72 58 97 106 66 129 39 268 -61 320 -41 21 -144 26
-206 10z"/>
<path d="M8533 3308 c-6 -7 -25 -56 -42 -108 -90 -262 -122 -464 -103 -634 18
-164 62 -213 172 -196 79 13 241 97 340 177 l85 68 3 103 c1 56 0 102 -3 102
-3 0 -52 -42 -110 -92 -115 -101 -215 -168 -252 -168 -36 0 -46 39 -40 155 6
112 36 242 102 448 25 77 45 143 45 148 0 14 -186 11 -197 -3z"/>
</g>
</svg>
