<?xml version="1.0" encoding="UTF-8" standalone="no"?>
<!DOCTYPE svg PUBLIC "-//W3C//DTD SVG 1.1//EN" "http://www.w3.org/Graphics/SVG/1.1/DTD/svg11.dtd">
<svg width="100%" height="100%" viewBox="0 0 153 101" version="1.1" xmlns="http://www.w3.org/2000/svg" xmlns:xlink="http://www.w3.org/1999/xlink" xml:space="preserve" xmlns:serif="http://www.serif.com/" style="fill-rule:evenodd;clip-rule:evenodd;stroke-linejoin:round;stroke-miterlimit:1.41421;">
    <path d="M1.96,0C0.88,0 0,0.85 0,1.88L0,90.18C0,91.18 0.88,92.04 1.94,92.04L28.04,92.04L28.04,90.39L1.96,90.39C1.81,90.39 1.71,90.29 1.71,90.16L1.71,1.87C1.71,1.73 1.81,1.65 1.95,1.65L150.75,1.65C150.9,1.65 150.99,1.73 150.99,1.88L150.99,90.18C150.99,90.31 150.89,90.4 150.75,90.4L123.35,90.4L123.35,92.04L150.75,92.04C151.82,92.04 152.7,91.18 152.7,90.16L152.7,1.87C152.7,0.85 151.82,0 150.76,0L1.96,0Z" style="fill-rule:nonzero;"/>
    <g transform="matrix(1,0,0,1,-54.1937,45.3379)">
        <g transform="matrix(1,0,0,1,93.005,51.811)">
            <path d="M14.414,-5.42L14.414,-2.93C13.125,-1.875 11.826,-1.089 10.518,-0.571C9.209,-0.054 7.9,0.205 6.592,0.205C4.834,0.205 3.428,-0.283 2.373,-1.26C1.318,-2.236 0.791,-3.535 0.791,-5.156C0.791,-6.66 1.211,-7.91 2.051,-8.906C2.813,-9.805 3.926,-10.498 5.391,-10.986C4.297,-11.729 3.75,-12.793 3.75,-14.18C3.75,-15.605 4.316,-16.895 5.449,-18.047C6.719,-19.336 8.311,-19.98 10.225,-19.98C11.338,-19.98 12.231,-19.673 12.905,-19.058C13.579,-18.442 13.916,-17.637 13.916,-16.641C13.916,-15.781 13.623,-15.02 13.037,-14.355C12.451,-13.691 11.787,-13.359 11.045,-13.359C10.928,-13.359 10.801,-13.491 10.664,-13.755C10.527,-14.019 10.459,-14.307 10.459,-14.619C10.459,-14.697 10.688,-14.917 11.147,-15.278C11.606,-15.64 11.836,-16.064 11.836,-16.553C11.836,-17.041 11.66,-17.441 11.309,-17.754C10.957,-18.066 10.508,-18.223 9.961,-18.223C8.965,-18.223 8.057,-17.773 7.236,-16.875C6.416,-15.977 6.006,-14.98 6.006,-13.887C6.006,-13.262 6.177,-12.729 6.519,-12.29C6.86,-11.851 7.295,-11.631 7.822,-11.631L9.17,-11.631C9.678,-11.631 10,-11.593 10.137,-11.517C10.273,-11.441 10.342,-11.261 10.342,-10.976C10.342,-10.35 10.254,-9.971 10.078,-9.838C9.902,-9.705 9.551,-9.639 9.023,-9.639C8.828,-9.639 8.525,-9.668 8.115,-9.727C7.705,-9.785 7.393,-9.814 7.178,-9.814C6.436,-9.814 5.625,-9.434 4.746,-8.672C3.652,-7.734 3.105,-6.582 3.105,-5.215C3.105,-4.18 3.467,-3.35 4.189,-2.725C4.912,-2.1 5.889,-1.787 7.119,-1.787C9.6,-1.787 12.031,-2.998 14.414,-5.42Z" style="fill-rule:nonzero;"/>
            <path d="M24.463,-5.42L24.463,-2.93C22.959,-1.777 21.66,-0.962 20.566,-0.483C19.473,-0.005 18.398,0.234 17.344,0.234C16.289,0.234 15.518,-0.195 15.029,-1.055C14.619,-1.758 14.414,-2.695 14.414,-3.867C14.414,-5.898 14.922,-8.525 15.938,-11.748C17.031,-15.205 18.203,-17.617 19.453,-18.984C20.156,-19.668 20.859,-20.01 21.563,-20.01C22.129,-20.01 22.607,-19.761 22.998,-19.263C23.389,-18.765 23.584,-18.145 23.584,-17.402C23.584,-16.289 23.262,-15.049 22.617,-13.682C22.07,-12.51 21.25,-11.172 20.156,-9.668C19.375,-8.574 18.32,-7.236 16.992,-5.654L16.846,-3.867C16.846,-2.461 17.305,-1.758 18.223,-1.758C19.004,-1.758 19.99,-2.1 21.182,-2.783C22.373,-3.467 23.467,-4.346 24.463,-5.42ZM17.402,-8.525C18.496,-10.068 19.248,-11.162 19.658,-11.807C20.361,-12.9 20.894,-13.862 21.255,-14.692C21.616,-15.522 21.797,-16.289 21.797,-16.992C21.797,-17.656 21.621,-17.988 21.27,-17.988C20.625,-17.988 19.824,-16.582 18.867,-13.77C18.184,-11.738 17.695,-9.99 17.402,-8.525Z" style="fill-rule:nonzero;"/>
            <path d="M32.373,-5.42L32.373,-2.93C31.611,-2.168 30.703,-1.475 29.648,-0.85C28.398,-0.107 27.344,0.264 26.484,0.264C25.762,0.264 25.283,-0.244 25.049,-1.26C24.932,-1.768 24.873,-2.568 24.873,-3.662C24.873,-4.717 25.039,-5.928 25.371,-7.295C25.703,-8.662 26.162,-10.088 26.748,-11.572L29.209,-11.572L28.916,-10.693C28.311,-8.877 27.881,-7.422 27.627,-6.328C27.373,-5.234 27.246,-4.287 27.246,-3.486C27.246,-2.549 27.432,-2.08 27.803,-2.08C28.291,-2.08 29.229,-2.666 30.615,-3.838C31.201,-4.346 31.787,-4.873 32.373,-5.42ZM29.502,-17.93C30.459,-17.93 30.938,-17.656 30.938,-17.109C30.938,-16.797 30.859,-16.401 30.703,-15.923C30.547,-15.444 30.366,-15.103 30.161,-14.897C29.956,-14.692 29.57,-14.59 29.004,-14.59C28.262,-14.59 27.891,-14.834 27.891,-15.322C27.891,-16.006 28.042,-16.611 28.345,-17.139C28.647,-17.666 29.033,-17.93 29.502,-17.93Z" style="fill-rule:nonzero;"/>
            <path d="M44.18,-5.42L44.18,-2.93C43.027,-1.836 41.87,-1.03 40.708,-0.513C39.546,0.005 38.34,0.264 37.09,0.264C35.41,0.264 34.209,-0.273 33.486,-1.348C32.998,-2.07 32.754,-2.949 32.754,-3.984C32.754,-5.938 33.398,-7.695 34.688,-9.258C35.977,-10.82 37.422,-11.602 39.023,-11.602C39.824,-11.602 40.459,-11.396 40.928,-10.986C41.396,-10.576 41.631,-10 41.631,-9.258C41.631,-8.594 41.484,-7.969 41.191,-7.383C40.898,-6.797 40.488,-6.328 39.961,-5.977C39.609,-6.133 39.316,-6.284 39.082,-6.431C38.848,-6.577 38.633,-6.777 38.438,-7.031C38.926,-7.695 39.229,-8.14 39.346,-8.364C39.463,-8.589 39.521,-8.828 39.521,-9.082C39.521,-9.59 39.248,-9.844 38.701,-9.844C37.92,-9.844 37.144,-9.189 36.372,-7.881C35.601,-6.572 35.215,-5.303 35.215,-4.072C35.215,-3.33 35.43,-2.734 35.859,-2.285C36.289,-1.836 36.846,-1.611 37.529,-1.611C38.545,-1.611 39.619,-1.929 40.752,-2.563C41.885,-3.198 43.027,-4.15 44.18,-5.42Z" style="fill-rule:nonzero;"/>
        </g>
        <g transform="matrix(1,0,0,1,141.655,51.811)">
            <path d="M3.545,-10.752L3.984,-10.518C4.688,-10.225 5.181,-10.024 5.464,-9.917C5.747,-9.81 6.035,-9.717 6.328,-9.639C6.953,-12.529 7.549,-14.619 8.115,-15.908C9.307,-18.623 10.83,-19.98 12.686,-19.98C13.643,-19.98 14.395,-19.609 14.941,-18.867C15.488,-18.125 15.762,-17.119 15.762,-15.85C15.762,-13.623 15.015,-11.675 13.521,-10.005C12.026,-8.335 10.254,-7.5 8.203,-7.5C7.813,-5.645 7.236,-4.131 6.475,-2.959L7.061,-2.959C7.607,-2.959 8.223,-2.854 8.906,-2.645C10.547,-2.151 11.582,-1.904 12.012,-1.904C12.656,-1.904 13.418,-2.246 14.297,-2.93C14.961,-3.457 15.85,-4.287 16.963,-5.42L16.963,-2.93C14.6,-0.82 12.754,0.234 11.426,0.234C10.625,0.234 9.639,0.029 8.467,-0.381C6.963,-0.908 5.996,-1.211 5.566,-1.289C4.688,-0.751 3.892,-0.363 3.179,-0.124C2.466,0.115 1.768,0.234 1.084,0.234C0.869,0.234 0.732,0.215 0.674,0.176C0.596,0.117 0.557,-0.001 0.557,-0.177C0.557,-1.098 0.996,-1.765 1.875,-2.177C2.383,-2.412 3.232,-2.608 4.424,-2.765C4.619,-3.118 4.819,-3.622 5.024,-4.279C5.229,-4.936 5.527,-6.078 5.918,-7.705L5.098,-7.939C4.199,-8.232 3.599,-8.491 3.296,-8.716C2.993,-8.94 2.842,-9.238 2.842,-9.609C2.842,-10.137 2.92,-10.576 3.076,-10.928L3.545,-10.752ZM8.76,-9.551C10.166,-9.551 11.348,-10.234 12.305,-11.602C13.184,-12.871 13.623,-14.336 13.623,-15.996C13.623,-17.246 13.262,-17.871 12.539,-17.871C11.113,-17.871 9.854,-15.098 8.76,-9.551Z" style="fill-rule:nonzero;"/>
            <path d="M24.844,-5.42L24.844,-2.93C24.082,-2.168 23.174,-1.475 22.119,-0.85C20.869,-0.107 19.814,0.264 18.955,0.264C18.232,0.264 17.754,-0.244 17.52,-1.26C17.402,-1.768 17.344,-2.568 17.344,-3.662C17.344,-4.717 17.51,-5.928 17.842,-7.295C18.174,-8.662 18.633,-10.088 19.219,-11.572L21.68,-11.572L21.387,-10.693C20.781,-8.877 20.352,-7.422 20.098,-6.328C19.844,-5.234 19.717,-4.287 19.717,-3.486C19.717,-2.549 19.902,-2.08 20.273,-2.08C20.762,-2.08 21.699,-2.666 23.086,-3.838C23.672,-4.346 24.258,-4.873 24.844,-5.42ZM21.973,-17.93C22.93,-17.93 23.408,-17.656 23.408,-17.109C23.408,-16.797 23.33,-16.401 23.174,-15.923C23.018,-15.444 22.837,-15.103 22.632,-14.897C22.427,-14.692 22.041,-14.59 21.475,-14.59C20.732,-14.59 20.361,-14.834 20.361,-15.322C20.361,-16.006 20.513,-16.611 20.815,-17.139C21.118,-17.666 21.504,-17.93 21.973,-17.93Z" style="fill-rule:nonzero;"/>
        </g>
    </g>
    <g transform="matrix(0.519517,0,0,0.87703,35.2505,13.3912)">
        <g transform="matrix(0.188934,0,0,0.16404,32.0976,3.15868)">
            <ellipse cx="248.693" cy="282.25" rx="241" ry="68" style="fill:white;"/>
        </g>
        <g id="path5" transform="matrix(0.188934,0,0,0.0974399,23.508,15.4123)">
            <path d="M53.922,319.73C53.922,319.73 53.25,460.89 55.938,470.295C58.626,479.705 60.666,498.48 105.008,518.019C184.323,552.976 319.039,553.377 411.52,535.498C512.348,516.002 531.84,483.736 531.84,483.736L533.856,317.037C533.856,317.037 521.086,345.938 442.438,366.106C417.49,372.502 305.166,389.627 211.883,382.235C76.102,371.488 53.922,319.73 53.922,319.73Z" style="fill-rule:nonzero;stroke:black;stroke-width:10.87px;"/>
        </g>
        <g id="path7" transform="matrix(0.188934,0,0,0.0974399,23.508,15.4123)">
            <path d="M56.777,309.309C56.777,309.309 50.226,287.633 98.622,269.485C147.019,251.337 273.052,228.145 361.782,239.739C450.509,251.337 516.048,282.087 523.101,293.177C530.161,304.272 527.64,329.983 527.64,329.983C527.64,329.983 512.011,309.815 479.243,298.725C446.473,287.635 386.485,272.006 339.597,268.479C292.714,264.948 213.058,272.51 185.331,278.057C157.603,283.6 110.722,294.19 93.581,303.768C76.439,313.345 60.81,326.956 60.81,326.956L56.777,309.309Z" style="fill-rule:nonzero;stroke:black;stroke-width:10.87px;"/>
        </g>
        <g id="path11" transform="matrix(0.188934,0,0,0.0974399,23.508,15.4123)">
            <path d="M532.598,312.679C532.598,270.659 395.309,235.706 302.629,237.05C180.301,238.823 56.106,265.273 56.106,313.675C56.106,362.077 174.106,385.343 292.211,383.585C411.145,381.812 532.598,354.699 532.598,312.679Z" style="fill:none;stroke:black;stroke-width:13.31px;stroke-linecap:round;stroke-linejoin:miter;stroke-miterlimit:4;"/>
        </g>
        <g id="path13" transform="matrix(0.188934,0,0,0.0974399,23.508,15.4123)">
            <path d="M532.598,312.679C536.332,328.757 535.404,361.632 535.16,394.339C534.85,436.37 534.371,478.104 532.492,483.522C529.152,493.152 470.34,547.6 287.84,547.6C105.344,547.6 65.164,491.488 62.668,487.549C53.34,472.826 55.694,451.377 55.266,426.27C55.098,416.684 56.039,327.082 56.274,318.386" style="fill:none;stroke:black;stroke-width:13.31px;stroke-linecap:round;stroke-linejoin:miter;stroke-miterlimit:4;"/>
        </g>
        <g id="path15" transform="matrix(0.188934,0,0,0.0974399,23.508,15.4123)">
            <path d="M532.598,343.602C532.598,301.581 395.309,266.628 302.629,267.968C180.301,269.745 56.106,296.191 56.106,344.593" style="fill:none;stroke:black;stroke-width:8.09px;stroke-linecap:round;stroke-linejoin:miter;stroke-miterlimit:4;"/>
        </g>
    </g>
    <g transform="matrix(1,0,0,1,-1.41163,7.76026)">
        <g id="path18" transform="matrix(0.16404,0,0,0.16404,30.0062,-4.78501)">
            <path d="M275.07,301.582C244.894,296.918 213.683,249.422 244.82,198.066C296.579,112.699 289.183,51.531 289.183,51.531C289.183,51.531 402.11,272.004 294.562,300.91" style="fill:white;fill-rule:nonzero;"/>
        </g>
        <g id="path20" transform="matrix(0.16404,0,0,0.16404,30.0062,-4.78501)">
            <path d="M267.921,299.69C240.346,289.38 216.146,245.36 244.82,198.066C296.579,112.699 289.183,51.531 289.183,51.531C289.183,51.531 396.905,261.842 301.73,298.581" style="fill:none;stroke:rgb(255,129,0);stroke-width:18.29px;stroke-linecap:round;stroke-linejoin:miter;stroke-miterlimit:4;"/>
        </g>
    </g>
</svg>
